<svg id="Layer_1" data-name="Layer 1" xmlns="http://www.w3.org/2000/svg" viewBox="0 0 100 100"><defs><style>.cls-1{fill:#fefefe;}.cls-2{fill:#f2f2f2;}.cls-3{fill:#c8c8c8;}.cls-4{fill:#c9c9c9;}</style></defs><path class="cls-1" d="M99.91,53V68a2.9,2.9,0,0,1-1.48.59c-2.15.28-1.86,2.07-2,3.45-.21,2,0,4-.14,6-.4,6.67-3.64,10-10.36,10.28-7.8.28-15.62.09-23.43.09-9.15,0-18.29.13-27.43-.06-5.76-.11-6.76-1.8-4.59-7.19,8-19.8,23.66-28.19,44-29.5a73.41,73.41,0,0,1,16.87,1.19,14.81,14.81,0,0,0,6.91-.18A2.13,2.13,0,0,1,99.91,53Z" transform="translate(0 0)"/><path class="cls-1" d="M.06,19c0-5.47.1-10.94,0-16.41C0,.63.23,0,2.48,0q47.51.15,95,0C99.74,0,100,.63,100,2.62c-.15,5.47,0,10.94,0,16.41a1.33,1.33,0,0,1-1.64-.19c-3.24-6-8.41-7.49-15-7.41q-33,.39-66.1,0c-6.69-.09-12.08,1.31-15.52,7.43A1.34,1.34,0,0,1,.06,19Z" transform="translate(0 0)"/><path class="cls-1" d="M99.91,81.93c0,4.81-.18,9.62.07,14.42.14,2.8-.33,3.67-3.49,3.65-26.36-.18-52.72-.1-79.09-.1-5,0-9.95-.16-14.91.07C.22,100.07,0,99.34,0,97.35c.16-5.14,0-10.28,0-15.42a1.23,1.23,0,0,1,1.6.28c2.72,5.66,7.25,7.38,13.41,7.32q34.91-.37,69.83,0c6.17.06,10.69-1.65,13.4-7.33A1.25,1.25,0,0,1,99.91,81.93Z" transform="translate(0 0)"/><path class="cls-2" d="M1,82q-.45,0-.9,0V19L1,19c1.93,1.83,1.67,4.26,1.67,6.54q.09,24.95,0,49.88C2.65,77.71,2.92,80.15,1,82Z" transform="translate(0 0)"/><path class="cls-2" d="M99,19l.92,0V53c-.3,0-.59,0-.89,0-1.44-1.19-1.61-2.88-1.64-4.53q-.24-12.46,0-24.92C97.41,21.9,97.58,20.21,99,19Z" transform="translate(0 0)"/><path class="cls-2" d="M99.91,81.93q-.45,0-.9,0a13.87,13.87,0,0,1,0-14c.3,0,.61,0,.91,0Z" transform="translate(0 0)"/><path class="cls-3" d="M99,67.93q0,7,0,14c-1.43,6.61-4.26,9-10.94,9Q50,91,11.9,91C5.23,91,2.38,88.56,1,82Q1,50.49,1,19c2.37-6.88,5.18-8.93,12.42-8.93q36.63,0,73.25,0c7.64,0,9.82,1.61,12.34,8.93l0,34c-1.5,2.74-3.8,1.89-6.12,1.48-15.58-2.75-30.75-2.41-44.66,6.37-8.34,5.26-13.48,13.06-17.12,22C30,85.66,30.18,87,33.84,86.94c17.63-.16,35.26,0,52.89-.1,5.34,0,7.89-2.68,8.07-8,.12-3.33-.23-6.69.14-10S96.93,65.14,99,67.93Z" transform="translate(0 0)"/><path class="cls-1" d="M5.15,50.58c0-8.81-.05-17.62,0-26.43,0-7.55,1.64-9.13,9-9.13q36.42,0,72.83,0c5.66,0,7.62,1.59,7.8,7.22.26,8,.06,16,.09,23.93,0,2.78-.86,3.55-4,3.12C77.6,47.47,64.43,47.7,52,53.51S31.23,68.86,26.75,81.64c-1.36,3.87-3,5.45-7.35,5.35C5.77,86.7,5.15,86.28,5.15,72.53Z" transform="translate(0 0)"/><path class="cls-4" d="M41.06,37.49c0,7.68-5.55,13.43-13,13.45C21,51,15,44.65,15,37.39a13.89,13.89,0,0,1,13.45-13.3C35.42,24.12,41,30.11,41.06,37.49Z" transform="translate(0 0)"/><path class="cls-1" d="M20,37.54c0-5.12,3.4-8.63,8.31-8.52,4.57.1,8.73,4.32,8.57,8.69a9,9,0,0,1-9,8.28C23.15,45.88,20,42.47,20,37.54Z" transform="translate(0 0)"/></svg>